<?xml version="1.0" encoding="UTF-8" standalone="no"?>
<!DOCTYPE svg PUBLIC "-//W3C//DTD SVG 1.1//EN" "http://www.w3.org/Graphics/SVG/1.1/DTD/svg11.dtd">
<svg width="100%" height="100%" viewBox="0 0 250 250" version="1.1" xmlns="http://www.w3.org/2000/svg" xmlns:xlink="http://www.w3.org/1999/xlink" xml:space="preserve" xmlns:serif="http://www.serif.com/" style="fill-rule:evenodd;clip-rule:evenodd;stroke-linejoin:round;stroke-miterlimit:2;">
    <rect id="ArtBoard1" x="0" y="0" width="250" height="250" style="fill:none;"/>
    <g id="ArtBoard11" serif:id="ArtBoard1">
        <rect x="0" y="0" width="250" height="250" style="fill:#0c121e;"/>
        <path d="M125,21.5c57.123,0 103.5,46.377 103.5,103.5c0,57.123 -46.377,103.5 -103.5,103.5c-57.123,0 -103.5,-46.377 -103.5,-103.5c0,-57.123 46.377,-103.5 103.5,-103.5Zm0,8.767c-52.284,0 -94.733,42.449 -94.733,94.733c0,52.284 42.449,94.733 94.733,94.733c52.284,0 94.733,-42.449 94.733,-94.733c0,-52.284 -42.449,-94.733 -94.733,-94.733Z" style="fill:#dadada;"/>
        <path d="M125,53.5c39.462,0 71.5,32.038 71.5,71.5c0,39.462 -32.038,71.5 -71.5,71.5c-39.462,0 -71.5,-32.038 -71.5,-71.5c0,-39.462 32.038,-71.5 71.5,-71.5Zm0,6.057c-36.119,0 -65.443,29.324 -65.443,65.443c0,36.119 29.324,65.443 65.443,65.443c36.119,0 65.443,-29.324 65.443,-65.443c0,-36.119 -29.324,-65.443 -65.443,-65.443Z" style="fill:#dadada;"/>
        <path d="M125,185.19c33.22,0 60.19,-26.97 60.19,-60.19l16.31,0c0,42.221 -34.279,76.5 -76.5,76.5l0,-16.31Zm-76.5,-60.19c0,-42.221 34.279,-76.5 76.5,-76.5l0,16.31c-33.22,0 -60.19,26.97 -60.19,60.19l-16.31,0Z" style="fill:#fe3d00;"/>
        <path d="M42.5,125c0,45.533 36.967,82.5 82.5,82.5l0,33c-63.746,0 -115.5,-51.754 -115.5,-115.5l33,0Zm82.5,-115.5c63.746,0 115.5,51.754 115.5,115.5l-33,0c0,-45.533 -36.967,-82.5 -82.5,-82.5l0,-33Z" style="fill:#3dfe00;"/>
    </g>
</svg>
